<?xml version="1.0" encoding="utf-8"?>
<!-- Generator: Adobe Illustrator 20.0.0, SVG Export Plug-In . SVG Version: 6.00 Build 0)  -->
<svg version="1.1" id="Isolation_Mode" xmlns="http://www.w3.org/2000/svg" xmlns:xlink="http://www.w3.org/1999/xlink" x="0px"
	 y="0px" viewBox="0 0 436.6 161.5" style="enable-background:new 0 0 436.6 161.5;" xml:space="preserve">
<style type="text/css">
	.st0{fill:#707C7C;}
	.st1{fill:#32FA00;}
</style>
<path class="st0" d="M201.4,102.8c2.4,2.8,5.4,5.2,9.2,7.1c3.9,2,7.9,3,11.7,3c1.8,0,3.5-0.2,5.1-0.6c1.7-0.4,3.2-1,4.4-1.8
	c1.3-0.9,2.3-2,3.1-3.4s1.1-3.1,1.1-5.1c0-1.9-0.5-3.5-1.4-4.9c-0.9-1.3-2.3-2.5-4-3.6s-3.8-2-6.4-2.9c-2.5-0.9-5.4-1.8-8.5-2.8
	s-6.1-2.2-9-3.5s-5.5-3.1-7.8-5.2s-4.1-4.7-5.5-7.6c-1.4-3-2.1-6.7-2.1-11c0-5.3,1.1-9.8,3.2-13.6c2.1-3.8,5-6.9,8.5-9.3
	c3.5-2.4,7.5-4.2,11.9-5.3c4.4-1.1,8.9-1.7,13.4-1.7c5.4,0,11,1,16.6,3c5.5,1.9,10.3,4.8,14.5,8.5l-14.2,15c-2-2.4-4.6-4.4-7.7-5.8
	c-3.3-1.5-6.5-2.3-9.5-2.3c-1.6,0-3.2,0.1-4.8,0.4c-1.6,0.3-3.1,0.8-4.5,1.6c-1.3,0.8-2.4,1.9-3.3,3.1c-0.9,1.3-1.4,3-1.4,5
	c0,1.7,0.4,3.2,1.1,4.3c0.7,1.1,1.8,2.2,3.1,3s2.9,1.6,4.8,2.3c1.9,0.7,3.9,1.4,6.2,2.1c3.2,1.1,6.7,2.3,10.2,3.6
	c3.5,1.3,6.7,3,9.6,5.2c2.9,2.1,5.3,4.8,7.1,8c1.9,3.1,2.8,7.1,2.8,11.9c0,5.5-1,10.2-3,14.2s-4.7,7.3-8.1,9.9
	c-3.4,2.6-7.3,4.5-11.7,5.8c-4.4,1.3-9,1.9-13.7,1.9c-6.8,0-13.5-1.2-19.9-3.6c-6.2-2.3-11.5-5.7-15.7-9.9L201.4,102.8z"/>
<path class="st0" d="M318.7,30.3c-7.3,0-14.2,1.2-20.5,3.5s-11.8,5.7-16.5,10.1s-8.4,9.7-11,15.9s-4,13.2-4,20.9
	c0,7.6,1.3,14.5,3.9,20.7c2.6,6.2,6.3,11.5,10.9,15.9s10.2,7.9,16.7,10.3c6.4,2.4,13.6,3.7,21.2,3.7c7.4,0,14.3-0.8,20.6-2.3
	c6.2-1.5,11.6-3.5,16.3-5.9V72.5h-42.8l10.4,18h11.8v18.3l-0.3,0.1c-2.1,0.9-4.4,1.6-6.9,2s-5.1,0.6-7.9,0.6
	c-4.8,0-9.1-0.8-12.8-2.3c-3.7-1.5-6.9-3.7-9.4-6.4c-2.5-2.7-4.5-6-5.8-9.8s-1.9-7.9-1.9-12.4c0-4.4,0.7-8.5,2.1-12.2s3.5-7,6-9.7
	c2.6-2.7,5.7-4.9,9.1-6.4c3.5-1.5,7.4-2.3,11.5-2.3c4.8,0,9.1,0.9,12.9,2.6c3.6,1.6,6.6,3.7,8.8,6.2l14.2-16.1
	c-4-3.7-9.2-6.7-15.5-9C333.4,31.5,326.3,30.3,318.7,30.3"/>
<path class="st0" d="M364,117.7c4.2,4.3,9.4,7.6,15.7,9.9c6.4,2.4,13.1,3.6,19.9,3.6c4.7,0,9.3-0.6,13.7-1.9
	c4.4-1.3,8.3-3.2,11.7-5.8c3.4-2.6,6.1-5.9,8.1-9.9s3-8.8,3-14.2c0-4.7-0.9-8.7-2.8-11.9c-1.9-3.2-4.3-5.9-7.1-8
	c-2.9-2.2-6.1-3.9-9.6-5.2c-3.6-1.3-7-2.5-10.2-3.6c-2.2-0.7-4.3-1.4-6.2-2.1c-1.8-0.7-3.5-1.5-4.8-2.3c-1.4-0.8-2.4-1.9-3.1-3
	c-0.7-1.2-1.1-2.6-1.1-4.3c0-2,0.5-3.7,1.4-5s2-2.3,3.3-3.1s2.8-1.3,4.5-1.6c1.6-0.3,3.2-0.4,4.8-0.4c3,0,6.3,0.8,9.5,2.3
	c3.1,1.4,5.7,3.4,7.7,5.8l14.2-15c-4.1-3.7-9-6.6-14.5-8.5c-5.6-2-11.2-3-16.6-3c-4.5,0-9,0.6-13.4,1.7c-4.4,1.1-8.4,2.9-11.9,5.3
	c-3.5,2.4-6.3,5.5-8.5,9.3c-2.1,3.7-3.2,8.3-3.2,13.6c0,4.3,0.7,8,2.1,11s3.2,5.6,5.5,7.6c2.3,2.1,4.9,3.8,7.8,5.2
	c2.9,1.4,6,2.5,9,3.5c3.2,1,6.1,1.9,8.5,2.8c2.5,0.9,4.7,1.9,6.4,2.9c1.7,1.1,3.1,2.3,4,3.6c1,1.3,1.4,3,1.4,4.9
	c0,2-0.4,3.7-1.1,5.1c-0.8,1.4-1.8,2.6-3.1,3.4c-1.3,0.8-2.8,1.5-4.4,1.8c-1.7,0.4-3.4,0.6-5.1,0.6c-3.9,0-7.8-1-11.7-3
	c-3.7-1.9-6.8-4.3-9.2-7.1L364,117.7z"/>
<path class="st1" d="M129.5,96.6l0.3,0.1L129.5,96.6z"/>
<path class="st1" d="M122.2,104.7l0.5,0.3L122.2,104.7z"/>
<path class="st1" d="M135.5,86.5h0.1H135.5z"/>
<path class="st1" d="M139.7,74.6L139.7,74.6L139.7,74.6z"/>
<path class="st1" d="M112.3,55.2L112.3,55.2L112.3,55.2z"/>
<polygon class="st1" points="10.8,121.1 10.8,121.1 10.8,121.1 "/>
<path class="st1" d="M68.1,1l4.8,30.1c0.9,0.1,1.8,0.3,2.7,0.5l1,9c1.4-0.1,2.8-0.2,4.2-0.2v-7.5V0C76.5,0,72.2,0.3,68.1,1"/>
<path class="st1" d="M70.1,30.7L70.1,30.7L64,1.8c-4.2,0.9-8.2,2.1-12.2,3.6l9.6,25c1,0,2,0,3,0l3.9,12.1c1.3-0.4,2.7-0.8,4.1-1.1
	L70.1,30.7z"/>
<path class="st1" d="M58.4,30.5L58.4,30.5L47.9,7c-3.9,1.7-7.6,3.7-11.1,6l12.3,19c1-0.3,2.1-0.5,3.1-0.7l8.4,14.5
	c1.2-0.7,2.5-1.3,3.8-1.9L58.4,30.5z"/>
<path class="st1" d="M45.9,32.8L45.9,32.8L33.3,15.4c-3.4,2.5-6.6,5.2-9.6,8.2l12.9,12.9c1-0.5,2.1-1,3.1-1.4l14.1,15.7
	c1-0.9,2.1-1.8,3.3-2.7L45.9,32.8z"/>
<path class="st1" d="M33.4,38.2L33.4,38.2L20.7,26.7c-2.8,3.1-5.4,6.5-7.7,10l11.5,7.5c0.9-0.8,1.9-1.5,2.9-2.2l20.7,15
	c0.8-1.1,1.7-2.2,2.7-3.3L33.4,38.2z"/>
<path class="st1" d="M21.8,46.7l-11-6.3C8.7,44,6.9,47.8,5.3,51.8l8.9,3.4c0.8-1,1.5-2,2.4-3l27.2,12.1c0.3-0.6,0.6-1.3,1-1.9
	c0.3-0.6,0.7-1.2,1-1.8L21.8,46.7z"/>
<path class="st1" d="M97.4,2.3c-1.3-0.4-2.7-0.7-4.1-1c-2.7-0.6-5.5-1-8.4-1.2l-1.8,33.5c0.8,0.3,1.6,0.6,2.4,0.9l-0.6,6
	c1.4,0.1,2.8,0.4,4.2,0.7l1-4.7L97.4,2.3z"/>
<path class="st1" d="M45.8,60.6L45.8,60.6c-0.4,0.6-0.7,1.2-1,1.9l0,0C45.1,61.8,45.4,61.2,45.8,60.6"/>
<path class="st1" d="M42.1,68.2L42.1,68.2l-30-9.7l-8.2-2.6C2.6,59.9,1.6,64,1,68.2L6.8,69c0.5-1.2,1-2.5,1.6-3.7l32.3,6.9
	c0.2-0.7,0.5-1.4,0.7-2l0.5,0.1c0.2-0.7,0.4-1.4,0.6-2L42.1,68.2z"/>
<path class="st1" d="M39.4,76.4l-34-3.6l-5-0.5C0.1,75.1,0,77.9,0,80.8c0,1.4,0,2.8,0.1,4.2L3,84.8c0.1-1.4,0.3-2.7,0.5-4.1h35
	c0.1-0.7,0.3-1.5,0.4-2.2l1.5,0.1c0-0.7,0.1-1.4,0.2-2.1L39.4,76.4z"/>
<path class="st1" d="M40.6,85l-2.7,0.3L2.7,89l-2.3,0.2c0.4,4.3,1.2,8.4,2.3,12.5l0.9-0.2c-0.2-1.4-0.4-2.8-0.6-4.1L37.7,90
	c0-0.8,0-1.6,0.1-2.3l3.1-0.5C40.8,86.4,40.7,85.7,40.6,85"/>
<path class="st1" d="M38,97.2l5.1-1.9c-0.3-0.7-0.5-1.3-0.7-2l-4.6,1.5L4.5,105.5L4,105.7c0.9,2.7,1.9,5.3,3,7.9l0.1-0.1l31.2-13.9
	C38.2,98.8,38.1,98,38,97.2"/>
<path class="st1" d="M46.9,102.7c-0.4-0.6-0.8-1.2-1.1-1.8l-6.5,3.8l-28.5,16.4l0,0l0,0c1.4,2.4,3,4.8,4.6,7.1l25.3-18.4
	c-0.3-0.9-0.5-1.7-0.8-2.6L46.9,102.7z"/>
<path class="st1" d="M52.2,109.3c-0.5-0.5-1-1-1.5-1.5l-8,7.2l-22,19.8c1.9,2.1,3.9,4.1,6,6l18.5-20.6c-0.5-0.8-0.9-1.7-1.3-2.6
	L52.2,109.3z"/>
<path class="st1" d="M58.8,114.6c-0.6-0.4-1.2-0.8-1.7-1.2l-8.6,11.9l-15.1,20.8c2.3,1.7,4.6,3.2,7.1,4.6l11.8-20.5
	c-0.7-0.8-1.3-1.6-2-2.4L58.8,114.6z"/>
<path class="st1" d="M66.3,118.5c-0.7-0.3-1.3-0.5-2-0.8L56.6,135l-8.7,19.6c2.6,1.1,5.2,2.2,7.9,3l6-18.4c-0.9-0.7-1.8-1.4-2.6-2.1
	L66.3,118.5z"/>
<path class="st1" d="M74.4,120.6c-0.7-0.1-1.4-0.2-2.1-0.4L67.5,143L64,159.8c2.7,0.6,5.5,1,8.3,1.3l1.6-14.8
	c-1.1-0.5-2.2-1-3.2-1.5L74.4,120.6z"/>
<path class="st1" d="M88.1,150.6c-1.2-0.2-2.5-0.5-3.7-0.8l-1.5-28.6l0,0v-0.1l0,0c-0.7,0-1.4,0.1-2.1,0.1l0,0v27.7v12.7l0,0
	c2.8,0,5.7-0.1,8.4-0.4L88.1,150.6z"/>
<path class="st1" d="M103.6,151.2c-1.3,0.1-2.6,0.2-4,0.2l-8.2-30.7c1.5-0.2,2.9-0.5,4.3-0.8l-0.2-0.6l-0.3-0.9
	c-2,0.8-4,1.4-6.1,1.8l0.1,0.3l0.1,0.4l6.5,30.4l1.8,8.4c2.8-0.6,5.5-1.3,8.2-2.2L103.6,151.2z"/>
<path class="st1" d="M119.4,147.6c-1.3,0.5-2.6,0.9-3.9,1.3l-15.4-30.2c1.5-0.5,2.9-1,4.3-1.6l-0.4-0.6l-1.2-1.9
	c-1.8,1.1-3.6,2.2-5.6,3l0.5,1.1l0.3,0.6l13.6,30.6l2,4.6c2.6-1.2,5.1-2.4,7.5-3.8L119.4,147.6z"/>
<path class="st1" d="M133.9,139.8c-1.1,0.8-2.3,1.6-3.5,2.3l-21.8-27c1.4-0.7,2.8-1.5,4.2-2.4l-0.5-0.5l-3-3
	c-1.5,1.5-3.1,2.9-4.8,4.1l1.6,2.2l0.4,0.6l20.4,28l1.3,1.9c2.3-1.7,4.5-3.4,6.6-5.3L133.9,139.8z"/>
<path class="st1" d="M143.3,131.4L116.9,110c1.4-1,2.7-2.1,3.9-3.2l-0.5-0.3l-5.7-3.7c-1.2,1.8-2.4,3.5-3.9,5l3.6,3.2l0.5,0.5
	l25.5,23l0.4,0.4c0.9-1,1.9-2.1,2.8-3.2L143.3,131.4z"/>
<path class="st1" d="M124.6,103.1c1.2-1.3,2.4-2.7,3.5-4.1l-0.4-0.1l-9.3-3.6c-0.8,2-1.7,3.9-2.7,5.7l6.5,3.8l0.5,0.3l28,16.2l0,0
	c0.7-1.2,1.4-2.5,2-3.7L124.6,103.1z"/>
<path class="st1" d="M131.4,94.3c1.1-1.6,2-3.3,2.9-5.1h-0.2l-13.5-2.1c-0.3,2.1-0.8,4.2-1.5,6.2l10.3,3.3l0.3,0.1l27.8,9
	c0.4-1.3,0.8-2.7,1.2-4.1L131.4,94.3z"/>
<path class="st1" d="M136.8,83.7c0.8-2,1.5-3.9,2.1-6l0,0l-17.8,0.9c0,0.7,0.1,1.4,0.1,2.1c0,1.4-0.1,2.8-0.2,4.2l14.6,1.5h0.1
	l25.5,2.7c0.1-1.4,0.2-2.8,0.3-4.2L136.8,83.7z"/>
<path class="st1" d="M160.5,68.1l-20.1,3.2c0.4-2.2,0.7-4.5,0.8-6.7l-21.4,5.7c0.5,2,0.9,4.1,1.1,6.2l18.8-2l0,0l21.4-2.2
	C160.9,70.9,160.7,69.5,160.5,68.1"/>
<path class="st1" d="M156.2,51.8l-14.9,5.7c-0.1-2.4-0.4-4.8-0.8-7.2l-23.7,12.1c1,1.9,1.8,3.8,2.4,5.9l22.2-7.2l16.3-5.3
	C157.1,54.5,156.7,53.1,156.2,51.8"/>
<path class="st1" d="M137.9,23.7l-5.4,5.4c-1.4-2.3-2.9-4.4-4.6-6.5l-21.2,26.1c0.5,0.5,1,1,1.5,1.6l-0.5,0.5c1,0.9,2,1.9,3,3
	l0.2-0.2l23.4-21.1l6.4-5.7C139.8,25.7,138.9,24.6,137.9,23.7"/>
<path class="st1" d="M128.2,15.4c-1.1-0.8-2.3-1.6-3.5-2.4l-2.3,3.6c-2-1.9-4.1-3.6-6.3-5.2l-16,31.4c0.6,0.5,1.2,0.9,1.8,1.4
	l-0.9,1.6c1.2,0.7,2.4,1.5,3.5,2.3l0.7-1l20.1-27.6L128.2,15.4z"/>
<path class="st1" d="M113.6,7c-1.3-0.6-2.6-1.1-3.9-1.6L109.1,7c-2.5-1.3-5-2.4-7.6-3.4l-9.1,34.1c0.7,0.4,1.4,0.8,2.1,1.2l-1.1,3.5
	c1.3,0.4,2.7,0.9,3.9,1.5l1.1-2.5l14.4-32.3L113.6,7z"/>
<path class="st1" d="M148.5,36.8l-9.7,6.3c-0.7-2.5-1.6-4.8-2.7-7.2l-23.8,19.3l0,0l0,0l-0.1,0.1c0.5,0.7,0.9,1.3,1.2,1.7l0,0
	c0.8,1.1,1.6,2.3,2.3,3.5l24-13.9l11-6.3C150,39.1,149.3,38,148.5,36.8"/>
</svg>
